<?xml version="1.0" standalone="no"?>
<!DOCTYPE svg PUBLIC "-//W3C//DTD SVG 20010904//EN"
 "http://www.w3.org/TR/2001/REC-SVG-20010904/DTD/svg10.dtd">
<svg version="1.0" xmlns="http://www.w3.org/2000/svg"
 width="651.000000pt" height="782.000000pt" viewBox="0 0 651.000000 782.000000"
 preserveAspectRatio="xMidYMid meet">

<g transform="translate(0.000000,782.000000) scale(0.100000,-0.100000)"
fill="#000000" stroke="none">
<path d="M456 7594 c-7 -19 1 -34 19 -34 8 0 17 -5 21 -11 5 -9 -1 -10 -20 -5
-21 5 -27 3 -24 -6 3 -7 18 -13 34 -13 38 0 45 30 10 46 -14 7 -23 16 -20 21
3 5 12 4 20 -3 16 -13 30 -6 19 10 -10 17 -52 13 -59 -5z"/>
<path d="M600 7565 c0 -25 5 -45 10 -45 6 0 10 11 10 25 0 14 5 25 10 25 6 0
10 -11 10 -25 0 -14 5 -25 10 -25 6 0 10 14 10 31 0 22 -5 32 -20 36 -11 3
-20 9 -20 14 0 5 -4 9 -10 9 -5 0 -10 -20 -10 -45z"/>
<path d="M1060 7565 c0 -25 5 -45 10 -45 6 0 10 20 10 45 0 25 -4 45 -10 45
-5 0 -10 -20 -10 -45z"/>
<path d="M1202 7565 c-2 -26 2 -45 8 -45 5 0 10 20 10 45 0 58 -14 58 -18 0z"/>
<path d="M1520 7565 c0 -25 5 -45 10 -45 6 0 10 20 10 45 0 25 -4 45 -10 45
-5 0 -10 -20 -10 -45z"/>
<path d="M1167 7593 c-7 -11 4 -73 13 -73 8 0 7 66 -2 75 -3 4 -8 3 -11 -2z"/>
<path d="M541 7576 c-19 -22 -4 -58 22 -54 11 2 22 8 24 15 3 7 -3 9 -16 6
-15 -4 -21 -1 -21 12 0 12 5 15 21 10 15 -5 20 -3 17 6 -7 20 -33 22 -47 5z"/>
<path d="M677 7584 c-4 -4 -7 -18 -7 -31 0 -27 21 -39 48 -28 15 7 14 9 -8 15
-25 8 -25 8 -2 9 17 1 22 6 20 19 -3 17 -38 29 -51 16z"/>
<path d="M740 7555 c0 -19 5 -35 10 -35 6 0 10 11 10 25 0 14 5 25 10 25 6 0
10 -11 10 -25 0 -34 18 -32 23 3 l4 27 2 -27 c0 -16 6 -28 12 -28 6 0 9 14 7
32 -3 31 -6 33 -45 36 l-43 3 0 -36z"/>
<path d="M850 7565 c-13 -33 -6 -45 26 -45 22 0 25 4 22 32 -4 43 -34 50 -48
13z m30 -25 c0 -5 -5 -10 -11 -10 -5 0 -7 5 -4 10 3 6 8 10 11 10 2 0 4 -4 4
-10z"/>
<path d="M950 7553 c0 -18 5 -33 10 -33 6 0 10 11 10 25 0 14 5 25 10 25 6 0
10 4 10 9 0 6 -9 9 -20 8 -16 -1 -20 -8 -20 -34z"/>
<path d="M1001 7576 c-7 -8 -10 -24 -6 -36 7 -22 39 -27 51 -8 5 8 2 9 -9 5
-9 -3 -19 -2 -22 3 -4 6 3 10 15 10 15 0 20 5 18 17 -4 23 -31 28 -47 9z"/>
<path d="M1100 7565 c-13 -33 -6 -45 26 -45 22 0 25 4 22 32 -4 43 -34 50 -48
13z m30 -25 c0 -5 -5 -10 -11 -10 -5 0 -7 5 -4 10 3 6 8 10 11 10 2 0 4 -4 4
-10z"/>
<path d="M1239 7574 c-17 -21 0 -49 32 -49 27 0 37 28 19 50 -16 19 -34 19
-51 -1z m41 -19 c0 -8 -7 -15 -15 -15 -16 0 -20 12 -8 23 11 12 23 8 23 -8z"/>
<path d="M1310 7556 c0 -20 5 -36 10 -36 6 0 10 11 10 25 0 14 5 25 10 25 6 0
10 -11 10 -25 0 -14 5 -25 11 -25 6 0 9 14 7 33 -2 27 -8 33 -30 35 -26 3 -28
1 -28 -32z"/>
<path d="M1385 7582 c-9 -10 -5 -62 5 -62 6 0 10 11 10 25 0 14 5 25 10 25 6
0 10 -11 10 -25 0 -14 5 -25 11 -25 6 0 9 14 7 33 -2 25 -8 32 -25 33 -12 1
-25 -1 -28 -4z"/>
<path d="M1461 7576 c-7 -8 -10 -24 -6 -36 7 -22 39 -27 51 -8 5 8 2 9 -9 5
-9 -3 -19 -2 -22 3 -4 6 3 10 15 10 15 0 20 5 18 17 -4 23 -31 28 -47 9z"/>
<path d="M434 7197 c-3 -9 -4 -28 -2 -44 3 -24 8 -28 41 -31 34 -3 37 -1 37
22 0 20 -5 26 -22 26 -18 0 -20 -2 -8 -10 11 -7 12 -12 3 -21 -18 -18 -43 -3
-43 26 0 31 24 43 47 24 14 -12 16 -12 11 1 -6 20 -56 26 -64 7z"/>
<path d="M736 7194 c-8 -21 -7 -66 2 -81 4 -6 7 13 7 43 0 30 -1 54 -1 54 -1
0 -5 -7 -8 -16z"/>
<path d="M830 7200 c0 -5 -7 -10 -15 -10 -16 0 -31 -43 -20 -59 3 -6 17 -11
31 -11 22 0 24 4 24 45 0 25 -4 45 -10 45 -5 0 -10 -4 -10 -10z m0 -51 c0 -20
-15 -26 -24 -10 -8 13 4 42 15 35 5 -3 9 -14 9 -25z"/>
<path d="M1290 7165 c0 -25 5 -45 10 -45 6 0 10 20 10 45 0 25 -4 45 -10 45
-5 0 -10 -20 -10 -45z"/>
<path d="M1350 7167 c0 -44 2 -48 23 -45 29 4 37 55 10 65 -10 4 -21 11 -25
17 -4 6 -8 -11 -8 -37z m37 -21 c-4 -9 -11 -16 -17 -16 -11 0 -14 33 -3 43 11
11 26 -10 20 -27z"/>
<path d="M1483 7165 c0 -27 2 -38 4 -22 2 15 2 37 0 50 -2 12 -4 0 -4 -28z"/>
<path d="M1513 7165 c0 -27 2 -38 4 -22 2 15 2 37 0 50 -2 12 -4 0 -4 -28z"/>
<path d="M1830 7200 c0 -5 -7 -10 -15 -10 -16 0 -31 -43 -20 -59 3 -6 17 -11
31 -11 22 0 24 4 24 45 0 25 -4 45 -10 45 -5 0 -10 -4 -10 -10z m0 -51 c0 -20
-15 -26 -24 -10 -8 13 4 42 15 35 5 -3 9 -14 9 -25z"/>
<path d="M1990 7165 c0 -25 5 -45 10 -45 6 0 10 20 10 45 0 25 -4 45 -10 45
-5 0 -10 -20 -10 -45z"/>
<path d="M2966 7192 c-5 -13 -9 -36 -11 -50 -3 -24 -2 -25 11 -7 14 18 14 18
15 -1 0 -16 2 -16 10 4 5 13 11 35 13 48 4 21 2 23 -9 14 -10 -8 -14 -8 -17 2
-3 8 -8 3 -12 -10z"/>
<path d="M3190 7200 c0 -5 -7 -10 -15 -10 -7 0 -18 -8 -24 -17 -9 -17 -11 -17
-24 1 -19 26 -47 14 -47 -19 0 -33 28 -45 46 -20 12 16 14 17 20 2 3 -10 17
-17 30 -17 22 0 24 4 24 45 0 25 -2 45 -5 45 -3 0 -5 -4 -5 -10z m-70 -45 c0
-26 -14 -33 -25 -15 -9 14 1 40 15 40 5 0 10 -11 10 -25z m67 -9 c-4 -9 -11
-16 -17 -16 -11 0 -14 33 -3 43 11 11 26 -10 20 -27z"/>
<path d="M3505 7155 c0 -30 4 -50 9 -45 4 4 8 25 8 45 0 20 -4 41 -8 46 -5 4
-9 -16 -9 -46z"/>
<path d="M2489 7195 c-7 -6 2 -75 10 -75 3 0 6 16 5 35 -1 35 -6 49 -15 40z"/>
<path d="M524 7179 c-5 -9 -2 -10 9 -6 9 3 19 2 22 -2 2 -5 -4 -11 -15 -14
-32 -8 -25 -37 9 -37 27 0 28 2 22 32 -7 34 -33 49 -47 27z m31 -39 c-3 -5
-10 -10 -16 -10 -5 0 -9 5 -9 10 0 6 7 10 16 10 8 0 12 -4 9 -10z"/>
<path d="M591 7151 c1 -28 3 -30 6 -11 3 14 9 30 14 36 5 7 3 11 -6 11 -11 0
-15 -11 -14 -36z"/>
<path d="M631 7171 c-6 -11 -8 -27 -5 -35 7 -18 39 -21 50 -5 4 8 0 9 -15 4
-12 -4 -21 -2 -21 4 0 6 9 11 21 11 14 0 19 5 17 17 -5 25 -35 28 -47 4z m34
-1 c3 -5 -1 -10 -10 -10 -9 0 -13 5 -10 10 3 6 8 10 10 10 2 0 7 -4 10 -10z"/>
<path d="M773 7155 c0 -22 2 -30 4 -17 2 12 2 30 0 40 -3 9 -5 -1 -4 -23z"/>
<path d="M861 7151 c2 -30 3 -32 6 -8 2 15 9 27 14 27 5 0 9 4 9 8 0 5 -7 9
-15 9 -11 0 -15 -10 -14 -36z"/>
<path d="M904 7176 c-10 -26 1 -51 24 -54 12 -2 22 1 22 7 0 6 -6 8 -14 5 -8
-3 -17 -1 -21 5 -4 7 4 11 20 11 23 0 24 2 15 20 -12 23 -38 26 -46 6z m31 -6
c3 -5 -1 -10 -10 -10 -9 0 -13 5 -10 10 3 6 8 10 10 10 2 0 7 -4 10 -10z"/>
<path d="M970 7170 c0 -11 7 -20 15 -20 8 0 15 -5 15 -11 0 -6 -7 -9 -15 -5
-8 3 -15 1 -15 -4 0 -6 9 -10 20 -10 13 0 20 7 20 20 0 11 -7 20 -15 20 -8 0
-15 5 -15 11 0 6 7 9 15 5 8 -3 15 -1 15 4 0 6 -9 10 -20 10 -13 0 -20 -7 -20
-20z"/>
<path d="M1031 7171 c-6 -11 -8 -27 -5 -35 7 -18 39 -21 50 -5 4 8 0 9 -15 4
-12 -4 -21 -2 -21 4 0 6 9 11 21 11 14 0 19 5 17 17 -5 25 -35 28 -47 4z m34
-1 c3 -5 -1 -10 -10 -10 -9 0 -13 5 -10 10 3 6 8 10 10 10 2 0 7 -4 10 -10z"/>
<path d="M1100 7180 c0 -5 7 -7 15 -4 8 4 15 2 15 -4 0 -5 -9 -12 -21 -15 -28
-7 -19 -31 12 -35 23 -3 25 0 21 33 -3 26 -9 35 -23 35 -10 0 -19 -4 -19 -10z
m30 -40 c0 -5 -4 -10 -10 -10 -5 0 -10 5 -10 10 0 6 5 10 10 10 6 0 10 -4 10
-10z"/>
<path d="M1163 7160 c2 -28 6 -36 25 -38 20 -3 22 1 21 35 -1 36 -2 37 -8 8
-3 -16 -11 -30 -16 -30 -5 0 -13 14 -17 30 -6 29 -6 29 -5 -5z"/>
<path d="M1323 7155 c0 -22 2 -30 4 -17 2 12 2 30 0 40 -3 9 -5 -1 -4 -23z"/>
<path d="M1420 7175 c-26 -32 15 -75 44 -45 8 9 6 11 -11 6 -12 -4 -24 -2 -28
4 -4 6 4 10 19 10 28 0 33 9 14 28 -16 16 -23 15 -38 -3z m30 -5 c0 -5 -4 -10
-10 -10 -5 0 -10 5 -10 10 0 6 5 10 10 10 6 0 10 -4 10 -10z"/>
<path d="M1540 7175 c-26 -32 15 -75 44 -45 8 9 6 11 -11 6 -12 -4 -24 -2 -28
4 -4 6 4 10 19 10 28 0 33 9 14 28 -16 16 -23 15 -38 -3z m30 -5 c0 -5 -4 -10
-10 -10 -5 0 -10 5 -10 10 0 6 5 10 10 10 6 0 10 -4 10 -10z"/>
<path d="M1670 7175 c-16 -19 -3 -55 21 -55 10 0 19 4 19 10 0 5 -7 7 -15 4
-11 -5 -15 1 -15 21 0 20 4 26 15 21 8 -3 15 -1 15 4 0 15 -26 12 -40 -5z"/>
<path d="M1731 7176 c-19 -23 -4 -58 22 -54 17 2 22 10 22 33 0 34 -24 45 -44
21z m36 -30 c-4 -9 -11 -16 -17 -16 -11 0 -14 33 -3 43 11 11 26 -10 20 -27z"/>
<path d="M1864 7176 c-10 -26 1 -51 24 -54 12 -2 22 1 22 7 0 6 -6 8 -14 5 -8
-3 -17 -1 -21 5 -4 7 4 11 20 11 23 0 24 2 15 20 -12 23 -38 26 -46 6z m31 -6
c3 -5 -1 -10 -10 -10 -9 0 -13 5 -10 10 3 6 8 10 10 10 2 0 7 -4 10 -10z"/>
<path d="M2023 7155 c0 -22 2 -30 4 -17 2 12 2 30 0 40 -3 9 -5 -1 -4 -23z"/>
<path d="M2050 7170 c-13 -25 -2 -50 22 -50 10 0 17 -4 13 -10 -3 -5 -13 -6
-23 -3 -14 5 -15 3 -5 -7 19 -21 43 6 43 49 0 30 -4 37 -20 38 -11 1 -24 -7
-30 -17z m35 -15 c0 -10 -6 -20 -12 -22 -8 -3 -13 5 -13 22 0 17 5 25 13 23 6
-3 12 -13 12 -23z"/>
<path d="M2110 7155 c0 -19 5 -35 10 -35 6 0 10 14 10 30 0 17 5 30 10 30 6 0
10 -13 10 -30 0 -16 5 -30 10 -30 11 0 13 30 4 54 -3 9 -17 16 -30 16 -21 0
-24 -5 -24 -35z"/>
<path d="M2184 7176 c-10 -26 1 -51 24 -54 12 -2 22 1 22 7 0 6 -6 8 -14 5 -8
-3 -17 -1 -21 5 -4 7 4 11 20 11 23 0 24 2 15 20 -12 23 -38 26 -46 6z m31 -6
c3 -5 -1 -10 -10 -10 -9 0 -13 5 -10 10 3 6 8 10 10 10 2 0 7 -4 10 -10z"/>
<path d="M2317 7183 c-11 -10 -8 -63 3 -63 6 0 10 10 10 23 0 13 5 28 12 35 9
9 9 12 -3 12 -9 0 -19 -3 -22 -7z"/>
<path d="M2354 7166 c-7 -29 1 -46 22 -46 8 0 12 -5 9 -10 -4 -6 -12 -7 -18
-4 -7 4 -7 1 1 -7 11 -12 16 -11 28 6 22 30 14 79 -13 83 -17 3 -24 -3 -29
-22z m36 -17 c0 -20 -15 -26 -25 -9 -9 15 3 43 15 35 5 -3 10 -15 10 -26z"/>
<path d="M2521 7151 c2 -30 3 -32 6 -8 2 15 9 27 14 27 5 0 9 4 9 8 0 5 -7 9
-15 9 -11 0 -15 -10 -14 -36z"/>
<path d="M2567 7183 c-13 -13 -7 -54 9 -60 24 -9 46 24 33 48 -10 19 -30 25
-42 12z m33 -28 c0 -26 -14 -33 -25 -15 -9 14 1 40 15 40 5 0 10 -11 10 -25z"/>
<path d="M2631 7153 c1 -36 2 -37 8 -8 3 17 11 30 16 30 5 0 13 -13 17 -30 6
-29 6 -29 5 5 -2 28 -6 36 -24 38 -21 3 -23 -1 -22 -35z"/>
<path d="M2697 7183 c-4 -3 -7 -17 -7 -30 0 -26 25 -42 42 -25 7 7 4 10 -8 9
-13 -1 -19 5 -19 18 0 13 6 20 17 19 10 -1 15 2 12 7 -6 11 -28 12 -37 2z"/>
<path d="M2754 7176 c-10 -26 1 -51 22 -54 24 -3 38 20 29 49 -7 22 -43 25
-51 5z m39 -9 c3 -8 1 -20 -4 -28 -11 -19 -34 3 -26 25 8 20 23 21 30 3z"/>
<path d="M2821 7151 c1 -36 1 -36 8 -6 3 17 11 30 16 30 5 0 13 -13 17 -30 6
-29 6 -29 5 5 -2 29 -6 35 -24 36 -20 1 -23 -3 -22 -35z"/>
<path d="M3027 7184 c-4 -4 -7 -18 -7 -31 0 -28 26 -41 43 -23 10 10 8 12 -5
7 -20 -7 -32 8 -24 30 5 13 9 13 23 2 14 -12 16 -12 11 1 -5 17 -30 25 -41 14z"/>
<path d="M3220 7175 c-26 -32 15 -75 44 -45 8 9 6 11 -11 6 -12 -4 -24 -2 -28
4 -4 6 4 10 19 10 28 0 33 9 14 28 -16 16 -23 15 -38 -3z m30 -5 c0 -5 -4 -10
-10 -10 -5 0 -10 5 -10 10 0 6 5 10 10 10 6 0 10 -4 10 -10z"/>
<path d="M3352 7158 c-2 -34 0 -38 23 -38 22 0 25 4 24 38 -1 35 -2 35 -8 8
-9 -42 -29 -44 -34 -4 l-4 33 -1 -37z"/>
<path d="M3447 7184 c-4 -4 -7 -18 -7 -31 0 -28 26 -41 43 -23 10 10 8 12 -5
7 -20 -7 -32 8 -24 30 5 13 9 13 23 2 14 -12 16 -12 11 1 -5 17 -30 25 -41 14z"/>
<path d="M3410 7150 c0 -16 5 -30 10 -30 6 0 10 14 10 30 0 17 -4 30 -10 30
-5 0 -10 -13 -10 -30z"/>
<path d="M1603 7115 c0 -8 4 -12 9 -9 4 3 8 9 8 15 0 5 -4 9 -8 9 -5 0 -9 -7
-9 -15z"/>
<path d="M888 7103 c7 -3 16 -2 19 1 4 3 -2 6 -13 5 -11 0 -14 -3 -6 -6z"/>
<path d="M1018 7103 c7 -3 16 -2 19 1 4 3 -2 6 -13 5 -11 0 -14 -3 -6 -6z"/>
<path d="M1078 7103 c7 -3 16 -2 19 1 4 3 -2 6 -13 5 -11 0 -14 -3 -6 -6z"/>
<path d="M431 6763 c1 -26 4 -38 6 -25 3 16 11 22 29 22 21 0 25 4 22 23 -2
16 -11 23 -30 25 -27 3 -28 2 -27 -45z m49 22 c0 -8 -9 -15 -20 -15 -11 0 -20
7 -20 15 0 8 9 15 20 15 11 0 20 -7 20 -15z"/>
<path d="M961 6780 c-7 -17 -10 -37 -7 -45 6 -18 42 -20 52 -4 4 7 0 9 -14 5
-11 -4 -23 -2 -27 4 -4 6 4 10 19 10 29 0 33 11 11 30 -8 7 -12 16 -9 21 3 5
2 9 -3 9 -4 0 -14 -14 -22 -30z m29 -10 c0 -5 -4 -10 -10 -10 -5 0 -10 5 -10
10 0 6 5 10 10 10 6 0 10 -4 10 -10z"/>
<path d="M1331 6765 c1 -40 3 -44 8 -21 8 39 24 39 32 1 l7 -30 1 33 c1 23 -4
35 -16 39 -10 4 -21 11 -25 17 -4 6 -7 -11 -7 -39z"/>
<path d="M1665 6799 c-11 -16 -10 -78 1 -88 5 -6 9 10 9 45 0 58 0 60 -10 43z"/>
<path d="M2960 6800 c0 -5 -7 -10 -15 -10 -16 0 -31 -43 -20 -59 3 -6 17 -11
31 -11 22 0 24 4 24 45 0 25 -4 45 -10 45 -5 0 -10 -4 -10 -10z m0 -51 c0 -20
-15 -26 -24 -10 -8 13 4 42 15 35 5 -3 9 -14 9 -25z"/>
<path d="M3732 6765 c0 -27 2 -42 5 -32 5 18 6 18 24 1 20 -18 27 -6 7 14 -8
8 -8 15 2 27 8 9 8 15 2 15 -6 0 -14 -6 -18 -12 -6 -9 -10 -5 -15 12 -5 18 -7
11 -7 -25z"/>
<path d="M3877 6804 c-4 -4 -7 -16 -7 -26 0 -10 -4 -18 -9 -18 -5 0 -7 -10 -3
-22 5 -21 6 -21 13 -2 7 19 8 19 9 -1 l1 -20 11 20 c14 24 23 87 9 66 -6 -9
-10 -10 -12 -2 -3 7 -8 9 -12 5z"/>
<path d="M3990 6801 c0 -5 -9 -11 -21 -14 -30 -8 -23 -61 9 -65 20 -3 22 1 22
42 0 25 -2 46 -5 46 -3 0 -5 -4 -5 -9z m0 -52 c0 -20 -15 -26 -25 -9 -9 15 3
43 15 35 5 -3 10 -15 10 -26z"/>
<path d="M4394 6756 c1 -30 4 -49 8 -43 10 16 10 69 0 84 -5 7 -8 -11 -8 -41z"/>
<path d="M660 6767 c0 -20 4 -38 8 -41 11 -6 9 60 -1 70 -4 4 -7 -9 -7 -29z"/>
<path d="M3220 6790 c-8 -5 -18 -6 -22 -4 -4 3 -7 -12 -7 -33 2 -29 3 -31 6
-11 5 35 33 46 33 13 0 -13 4 -26 8 -29 9 -5 10 59 1 68 -2 3 -11 1 -19 -4z"/>
<path d="M3567 6793 c-6 -11 4 -73 12 -73 7 0 6 68 -2 76 -3 3 -7 2 -10 -3z"/>
<path d="M511 6776 c-19 -23 -4 -58 22 -54 17 2 22 10 22 33 0 34 -24 45 -44
21z m36 -30 c-4 -9 -11 -16 -17 -16 -11 0 -14 33 -3 43 11 11 26 -10 20 -27z"/>
<path d="M574 6779 c-4 -7 4 -20 17 -31 l24 -20 -23 5 c-12 3 -20 1 -16 -4 3
-5 14 -9 25 -9 22 0 26 28 4 36 -8 4 -15 10 -15 15 0 4 7 5 17 2 11 -4 14 -3
9 5 -9 15 -33 15 -42 1z"/>
<path d="M727 6783 c-13 -13 -7 -54 9 -60 24 -9 46 24 33 48 -10 19 -30 25
-42 12z m33 -28 c0 -26 -14 -33 -25 -15 -9 14 1 40 15 40 5 0 10 -11 10 -25z"/>
<path d="M791 6753 c1 -36 2 -37 8 -8 3 17 11 30 16 30 5 0 13 -13 17 -30 6
-29 6 -29 5 5 -2 28 -6 36 -24 38 -21 3 -23 -1 -22 -35z"/>
<path d="M890 6770 c-13 -25 -2 -50 22 -50 10 0 17 -4 13 -10 -3 -5 -13 -6
-23 -3 -14 5 -15 3 -5 -7 19 -21 43 6 43 49 0 30 -4 37 -20 38 -11 1 -24 -7
-30 -17z m35 -15 c0 -10 -6 -20 -12 -22 -8 -3 -13 5 -13 22 0 17 5 25 13 23 6
-3 12 -13 12 -23z"/>
<path d="M1027 6783 c-4 -3 -7 -17 -7 -30 0 -31 29 -42 46 -18 12 16 14 17 20
2 3 -10 15 -17 26 -17 10 0 17 -4 13 -10 -3 -5 -13 -6 -23 -3 -14 5 -15 3 -5
-7 20 -21 43 6 43 50 0 31 -3 37 -20 36 -12 0 -25 -8 -31 -16 -8 -13 -11 -13
-20 3 -10 17 -30 22 -42 10z m33 -28 c0 -26 -14 -33 -25 -15 -9 14 1 40 15 40
5 0 10 -11 10 -25z m65 0 c0 -10 -6 -20 -12 -22 -8 -3 -13 5 -13 22 0 17 5 25
13 23 6 -3 12 -13 12 -23z"/>
<path d="M1157 6783 c-11 -10 -8 -63 3 -63 6 0 10 10 10 23 0 13 5 28 12 35 9
9 9 12 -3 12 -9 0 -19 -3 -22 -7z"/>
<path d="M1200 6780 c0 -5 7 -7 15 -4 8 4 15 2 15 -4 0 -5 -9 -12 -21 -15 -28
-7 -19 -31 12 -35 23 -3 25 0 21 33 -3 26 -9 35 -23 35 -10 0 -19 -4 -19 -10z
m30 -40 c0 -5 -4 -10 -10 -10 -5 0 -10 5 -10 10 0 6 5 10 10 10 6 0 10 -4 10
-10z"/>
<path d="M1261 6735 c1 -27 3 -42 6 -32 2 9 13 17 23 17 10 0 21 7 24 16 9 23
-11 53 -34 51 -17 -1 -20 -8 -19 -52z m39 20 c0 -26 -14 -33 -25 -15 -9 14 1
40 15 40 5 0 10 -11 10 -25z"/>
<path d="M1427 6783 c-14 -13 -7 -54 11 -60 9 -4 20 -11 24 -17 4 -6 8 10 8
37 0 39 -3 47 -18 47 -10 0 -22 -3 -25 -7z m33 -34 c0 -10 -7 -19 -15 -19 -15
0 -21 31 -9 43 11 10 24 -3 24 -24z"/>
<path d="M1492 6758 c-2 -34 0 -38 23 -38 22 0 25 4 24 38 -1 35 -2 35 -8 8
-9 -42 -29 -44 -34 -4 l-4 33 -1 -37z"/>
<path d="M1560 6775 c-26 -32 15 -75 44 -45 8 9 6 11 -11 6 -12 -4 -24 -2 -28
4 -4 6 4 10 19 10 28 0 33 9 14 28 -16 16 -23 15 -38 -3z m30 -5 c0 -5 -4 -10
-10 -10 -5 0 -10 5 -10 10 0 6 5 10 10 10 6 0 10 -4 10 -10z"/>
<path d="M1697 6783 c-4 -3 -7 -17 -7 -30 0 -26 25 -42 42 -25 7 7 4 10 -8 9
-13 -1 -19 5 -19 18 0 13 6 20 17 19 10 -1 15 2 12 7 -6 11 -28 12 -37 2z"/>
<path d="M1827 6783 c-16 -15 -6 -54 16 -63 26 -10 21 -11 -58 -12 l-60 -1 60
-6 c81 -8 85 -6 85 45 0 36 -3 44 -18 44 -10 0 -22 -3 -25 -7z m29 -39 c-5
-13 -10 -14 -18 -6 -6 6 -8 18 -4 28 5 13 10 14 18 6 6 -6 8 -18 4 -28z"/>
<path d="M1891 6771 c-6 -11 -8 -27 -5 -35 7 -18 39 -21 50 -5 4 8 0 9 -15 4
-12 -4 -21 -2 -21 4 0 6 9 11 21 11 14 0 19 5 17 17 -5 25 -35 28 -47 4z m34
-1 c3 -5 -1 -10 -10 -10 -9 0 -13 5 -10 10 3 6 8 10 10 10 2 0 7 -4 10 -10z"/>
<path d="M1954 6776 c-10 -26 1 -51 22 -54 24 -3 38 20 29 49 -7 22 -43 25
-51 5z m39 -9 c3 -8 1 -20 -4 -28 -11 -19 -34 3 -26 25 8 20 23 21 30 3z"/>
<path d="M2090 6769 c9 -15 8 -24 -1 -35 -8 -10 -8 -14 0 -14 6 0 11 5 11 12
0 9 3 9 12 0 17 -17 33 -15 18 3 -6 8 -9 24 -5 37 5 19 4 20 -5 8 -9 -11 -13
-12 -17 -2 -2 6 -9 12 -14 12 -6 0 -5 -9 1 -21z"/>
<path d="M2216 6765 c4 -16 7 -38 8 -47 0 -10 3 -18 7 -18 8 0 33 79 27 86 -3
2 -9 -8 -13 -23 l-7 -28 -14 30 -14 30 6 -30z"/>
<path d="M2337 6784 c-4 -4 -7 -18 -7 -31 0 -28 26 -41 43 -23 10 10 8 12 -5
7 -20 -7 -32 8 -24 30 5 13 9 13 23 2 14 -12 16 -12 11 1 -5 17 -30 25 -41 14z"/>
<path d="M2397 6783 c-13 -13 -7 -54 9 -60 24 -9 46 24 33 48 -10 19 -30 25
-42 12z m33 -28 c0 -26 -14 -33 -25 -15 -9 14 1 40 15 40 5 0 10 -11 10 -25z"/>
<path d="M2461 6752 c1 -27 3 -31 6 -12 7 40 23 48 23 12 0 -18 5 -32 10 -32
6 0 10 14 10 30 0 40 18 38 23 -2 l4 -33 1 36 c2 36 2 37 -38 37 -40 1 -40 1
-39 -36z"/>
<path d="M2561 6752 c1 -27 3 -31 6 -12 7 40 23 48 23 12 0 -18 5 -32 10 -32
6 0 10 14 10 30 0 40 18 38 23 -2 l4 -33 1 36 c2 36 2 37 -38 37 -40 1 -40 1
-39 -36z"/>
<path d="M2662 6758 c-2 -34 0 -38 23 -38 22 0 25 4 24 38 -1 35 -2 35 -8 8
-9 -42 -29 -44 -34 -4 l-4 33 -1 -37z"/>
<path d="M2720 6755 c0 -19 5 -35 10 -35 6 0 10 14 10 30 0 17 5 30 10 30 6 0
10 -13 10 -30 0 -16 5 -30 10 -30 11 0 13 30 4 54 -3 9 -17 16 -30 16 -21 0
-24 -5 -24 -35z"/>
<path d="M2794 6776 c-10 -26 1 -51 24 -54 12 -2 22 1 22 7 0 6 -6 8 -14 5 -8
-3 -17 -1 -21 5 -4 7 4 11 20 11 23 0 24 2 15 20 -12 23 -38 26 -46 6z m31 -6
c3 -5 -1 -10 -10 -10 -9 0 -13 5 -10 10 3 6 8 10 10 10 2 0 7 -4 10 -10z"/>
<path d="M2994 6776 c-10 -26 1 -51 24 -54 12 -2 22 1 22 7 0 6 -6 8 -14 5 -8
-3 -17 -1 -21 5 -4 7 4 11 20 11 23 0 24 2 15 20 -12 23 -38 26 -46 6z m31 -6
c3 -5 -1 -10 -10 -10 -9 0 -13 5 -10 10 3 6 8 10 10 10 2 0 7 -4 10 -10z"/>
<path d="M3060 6743 c0 -26 4 -43 8 -37 4 6 15 13 25 17 27 10 19 61 -10 65
-21 3 -23 -1 -23 -45z m37 3 c-4 -9 -11 -16 -17 -16 -11 0 -14 33 -3 43 11 11
26 -10 20 -27z"/>
<path d="M3130 6780 c0 -5 7 -7 15 -4 8 4 15 2 15 -4 0 -5 -9 -12 -21 -15 -28
-7 -19 -31 12 -35 23 -3 25 0 21 33 -3 26 -9 35 -23 35 -10 0 -19 -4 -19 -10z
m30 -40 c0 -5 -4 -10 -10 -10 -5 0 -10 5 -10 10 0 6 5 10 10 10 6 0 10 -4 10
-10z"/>
<path d="M3270 6775 c-26 -32 15 -75 44 -45 8 9 6 11 -11 6 -12 -4 -24 -2 -28
4 -4 6 4 10 19 10 28 0 33 9 14 28 -16 16 -23 15 -38 -3z m30 -5 c0 -5 -4 -10
-10 -10 -5 0 -10 5 -10 10 0 6 5 10 10 10 6 0 10 -4 10 -10z"/>
<path d="M3331 6750 l1 -35 7 30 c3 17 11 30 16 30 5 0 13 -13 16 -30 7 -30 7
-30 8 -3 1 38 21 46 21 9 0 -17 5 -31 10 -31 12 0 13 40 2 56 -4 7 -24 11 -44
11 -37 -1 -38 -2 -37 -37z"/>
<path d="M3434 6776 c-10 -26 1 -51 24 -54 12 -2 22 1 22 7 0 6 -6 8 -14 5 -8
-3 -17 -1 -21 5 -4 7 4 11 20 11 23 0 24 2 15 20 -12 23 -38 26 -46 6z m31 -6
c3 -5 -1 -10 -10 -10 -9 0 -13 5 -10 10 3 6 8 10 10 10 2 0 7 -4 10 -10z"/>
<path d="M3501 6753 c1 -36 2 -37 8 -8 3 17 11 30 16 30 5 0 13 -13 17 -30 6
-29 6 -29 5 5 -2 28 -6 36 -24 38 -21 3 -23 -1 -22 -35z"/>
<path d="M3661 6743 c0 -27 3 -42 6 -35 2 6 13 12 23 12 25 0 33 15 26 46 -5
17 -13 24 -31 24 -23 0 -25 -3 -24 -47z m43 28 c8 -12 -3 -41 -15 -41 -5 0 -9
11 -9 25 0 25 14 34 24 16z"/>
<path d="M4021 6751 c1 -28 3 -30 6 -11 3 14 9 30 14 36 5 7 3 11 -6 11 -11 0
-15 -11 -14 -36z"/>
<path d="M4061 6771 c-6 -11 -8 -27 -5 -35 7 -18 39 -21 50 -5 4 8 0 9 -15 4
-12 -4 -21 -2 -21 4 0 6 9 11 21 11 14 0 19 5 17 17 -5 25 -35 28 -47 4z m34
-1 c3 -5 -1 -10 -10 -10 -9 0 -13 5 -10 10 3 6 8 10 10 10 2 0 7 -4 10 -10z"/>
<path d="M4124 6779 c-4 -7 4 -20 17 -31 l24 -20 -23 5 c-12 3 -20 1 -16 -4 3
-5 14 -9 25 -9 22 0 26 28 4 36 -8 4 -15 10 -15 15 0 4 7 5 17 2 11 -4 14 -3
9 5 -9 15 -33 15 -42 1z"/>
<path d="M4190 6775 c-26 -32 15 -75 44 -45 8 9 6 11 -11 6 -12 -4 -24 -2 -28
4 -4 6 4 10 19 10 28 0 33 9 14 28 -16 16 -23 15 -38 -3z m30 -5 c0 -5 -4 -10
-10 -10 -5 0 -10 5 -10 10 0 6 5 10 10 10 6 0 10 -4 10 -10z"/>
<path d="M4260 6780 c0 -5 7 -7 15 -4 8 4 15 2 15 -4 0 -5 -9 -12 -21 -15 -28
-7 -19 -31 12 -35 23 -3 25 0 21 33 -3 26 -9 35 -23 35 -10 0 -19 -4 -19 -10z
m30 -40 c0 -5 -4 -10 -10 -10 -5 0 -10 5 -10 10 0 6 5 10 10 10 6 0 10 -4 10
-10z"/>
<path d="M4323 6760 c2 -28 6 -36 25 -38 20 -3 22 1 21 35 -1 36 -2 37 -8 8
-3 -16 -11 -30 -16 -30 -5 0 -13 14 -17 30 -6 29 -6 29 -5 -5z"/>
<path d="M630 6750 c0 -16 5 -30 10 -30 6 0 10 14 10 30 0 17 -4 30 -10 30 -5
0 -10 -13 -10 -30z"/>
<path d="M690 6750 c0 -16 5 -30 10 -30 6 0 10 14 10 30 0 17 -4 30 -10 30 -5
0 -10 -13 -10 -30z"/>
<path d="M1390 6750 c0 -16 5 -30 10 -30 6 0 10 14 10 30 0 17 -4 30 -10 30
-5 0 -10 -13 -10 -30z"/>
<path d="M3920 6750 c0 -16 5 -30 10 -30 6 0 10 14 10 30 0 17 -4 30 -10 30
-5 0 -10 -13 -10 -30z"/>
<path d="M2025 6721 c3 -5 -4 -12 -15 -14 -18 -4 -18 -5 2 -3 22 1 39 26 18
26 -6 0 -9 -4 -5 -9z"/>
<path d="M3793 6715 c0 -8 4 -12 9 -9 4 3 8 9 8 15 0 5 -4 9 -8 9 -5 0 -9 -7
-9 -15z"/>
<path d="M1938 6703 c7 -3 16 -2 19 1 4 3 -2 6 -13 5 -11 0 -14 -3 -6 -6z"/>
<path d="M431 6363 c2 -46 2 -46 8 -13 l7 35 17 -32 c25 -46 37 -41 36 15 -2
45 -2 46 -8 12 l-7 -35 -20 32 c-10 18 -22 33 -26 33 -5 0 -7 -21 -7 -47z"/>
<path d="M828 6385 c-14 -31 0 -79 22 -81 8 0 10 1 3 3 -17 6 -24 48 -13 77
12 34 3 34 -12 1z"/>
<path d="M1030 6400 c0 -5 -7 -10 -15 -10 -7 0 -18 -8 -24 -17 -9 -17 -11 -17
-24 1 -19 26 -47 14 -47 -19 0 -33 28 -45 46 -20 12 16 14 17 20 2 3 -10 17
-17 30 -17 22 0 24 4 24 45 0 25 -2 45 -5 45 -3 0 -5 -4 -5 -10z m-70 -45 c0
-26 -14 -33 -25 -15 -9 14 1 40 15 40 5 0 10 -11 10 -25z m67 -9 c-4 -9 -11
-16 -17 -16 -11 0 -14 33 -3 43 11 11 26 -10 20 -27z"/>
<path d="M1408 6398 c-2 -7 -1 -29 3 -48 6 -35 6 -35 8 -5 2 17 4 38 6 48 4
19 -11 24 -17 5z"/>
<path d="M2212 6381 c-7 -19 -12 -41 -12 -50 0 -14 2 -14 10 -1 9 13 10 13 10
0 0 -11 4 -9 12 5 15 24 23 87 10 66 -8 -11 -10 -11 -14 0 -2 7 -10 -2 -16
-20z"/>
<path d="M2330 6400 c0 -5 -7 -10 -15 -10 -16 0 -31 -43 -20 -59 3 -6 17 -11
31 -11 22 0 24 4 24 45 0 25 -4 45 -10 45 -5 0 -10 -4 -10 -10z m0 -51 c0 -20
-15 -26 -24 -10 -8 13 4 42 15 35 5 -3 9 -14 9 -25z"/>
<path d="M2734 6356 c1 -30 4 -49 8 -43 10 16 10 69 0 84 -5 7 -8 -11 -8 -41z"/>
<path d="M580 6367 c0 -20 4 -38 8 -41 11 -6 9 60 -1 70 -4 4 -7 -9 -7 -29z"/>
<path d="M1549 6395 c-7 -6 2 -75 10 -75 3 0 6 16 5 35 -1 35 -6 49 -15 40z"/>
<path d="M520 6380 c0 -5 7 -7 15 -4 8 4 15 2 15 -4 0 -5 -9 -12 -21 -15 -28
-7 -19 -31 12 -35 23 -3 25 0 21 33 -3 26 -9 35 -23 35 -10 0 -19 -4 -19 -10z
m30 -40 c0 -5 -4 -10 -10 -10 -5 0 -10 5 -10 10 0 6 5 10 10 10 6 0 10 -4 10
-10z"/>
<path d="M612 6359 c2 -29 7 -35 31 -37 24 -3 27 0 27 27 0 16 -4 33 -10 36
-6 4 -10 -7 -10 -24 0 -17 -4 -31 -10 -31 -5 0 -10 11 -10 24 0 14 -5 28 -11
31 -7 5 -9 -5 -7 -26z"/>
<path d="M681 6351 c2 -30 3 -32 6 -8 2 15 9 27 14 27 5 0 9 4 9 8 0 5 -7 9
-15 9 -11 0 -15 -10 -14 -36z"/>
<path d="M724 6376 c-10 -26 1 -51 24 -54 12 -2 22 1 22 7 0 6 -6 8 -14 5 -8
-3 -17 -1 -21 5 -4 7 4 11 20 11 23 0 24 2 15 20 -12 23 -38 26 -46 6z m31 -6
c3 -5 -1 -10 -10 -10 -9 0 -13 5 -10 10 3 6 8 10 10 10 2 0 7 -4 10 -10z"/>
<path d="M867 6384 c-4 -4 -7 -18 -7 -31 0 -28 26 -41 43 -23 10 10 8 12 -5 7
-20 -7 -32 8 -24 30 5 13 9 13 23 2 14 -12 16 -12 11 1 -5 17 -30 25 -41 14z"/>
<path d="M1060 6375 c-26 -32 15 -75 44 -45 8 9 6 11 -11 6 -12 -4 -24 -2 -28
4 -4 6 4 10 19 10 28 0 33 9 14 28 -16 16 -23 15 -38 -3z m30 -5 c0 -5 -4 -10
-10 -10 -5 0 -10 5 -10 10 0 6 5 10 10 10 6 0 10 -4 10 -10z"/>
<path d="M1192 6358 c-2 -34 0 -38 23 -38 22 0 25 4 24 38 -1 35 -2 35 -8 8
-9 -42 -29 -44 -34 -4 l-4 33 -1 -37z"/>
<path d="M1287 6384 c-4 -4 -7 -18 -7 -31 0 -28 26 -41 43 -23 10 10 8 12 -5
7 -20 -7 -32 8 -24 30 5 13 9 13 23 2 14 -12 16 -12 11 1 -5 17 -30 25 -41 14z"/>
<path d="M1441 6351 c2 -30 3 -32 6 -8 2 15 9 27 14 27 5 0 9 4 9 8 0 5 -7 9
-15 9 -11 0 -15 -10 -14 -36z"/>
<path d="M1484 6376 c-10 -26 1 -51 24 -54 12 -2 22 1 22 7 0 6 -6 8 -14 5 -8
-3 -17 -1 -21 5 -4 7 4 11 20 11 23 0 24 2 15 20 -12 23 -38 26 -46 6z m31 -6
c3 -5 -1 -10 -10 -10 -9 0 -13 5 -10 10 3 6 8 10 10 10 2 0 7 -4 10 -10z"/>
<path d="M1640 6387 c0 -13 23 -67 29 -67 9 0 32 62 25 69 -2 3 -7 -5 -11 -17
-6 -25 -23 -30 -23 -8 0 8 -4 18 -10 21 -5 3 -10 4 -10 2z"/>
<path d="M1711 6376 c-19 -23 -4 -58 22 -54 17 2 22 10 22 33 0 34 -24 45 -44
21z m36 -30 c-4 -9 -11 -16 -17 -16 -11 0 -14 33 -3 43 11 11 26 -10 20 -27z"/>
<path d="M1776 6365 c4 -16 7 -38 8 -47 0 -10 3 -18 7 -18 8 0 33 79 27 86 -3
2 -9 -8 -13 -23 l-7 -28 -14 30 -14 30 6 -30z"/>
<path d="M1840 6380 c0 -5 7 -7 15 -4 8 4 15 2 15 -4 0 -5 -9 -12 -21 -15 -28
-7 -19 -31 12 -35 23 -3 25 0 21 33 -3 26 -9 35 -23 35 -10 0 -19 -4 -19 -10z
m30 -40 c0 -5 -4 -10 -10 -10 -5 0 -10 5 -10 10 0 6 5 10 10 10 6 0 10 -4 10
-10z"/>
<path d="M1907 6383 c-15 -15 -7 -55 13 -60 11 -3 17 -9 15 -14 -3 -4 -13 -6
-23 -3 -14 5 -14 4 -3 -4 26 -18 41 -2 41 44 0 36 -3 44 -18 44 -10 0 -22 -3
-25 -7z m29 -39 c-5 -13 -10 -14 -18 -6 -6 6 -8 18 -4 28 5 13 10 14 18 6 6
-6 8 -18 4 -28z"/>
<path d="M1971 6371 c-6 -11 -8 -27 -5 -35 7 -18 39 -21 50 -5 4 8 0 9 -15 4
-12 -4 -21 -2 -21 4 0 6 9 11 21 11 14 0 19 5 17 17 -5 25 -35 28 -47 4z m34
-1 c3 -5 -1 -10 -10 -10 -9 0 -13 5 -10 10 3 6 8 10 10 10 2 0 7 -4 10 -10z"/>
<path d="M2032 6359 c2 -29 7 -35 31 -37 24 -3 27 0 27 27 0 16 -4 33 -10 36
-6 4 -10 -7 -10 -24 0 -17 -4 -31 -10 -31 -5 0 -10 11 -10 24 0 14 -5 28 -11
31 -7 5 -9 -5 -7 -26z"/>
<path d="M2101 6351 c2 -30 3 -32 6 -8 2 15 9 27 14 27 5 0 9 4 9 8 0 5 -7 9
-15 9 -11 0 -15 -10 -14 -36z"/>
<path d="M2273 6355 c0 -22 2 -30 4 -17 2 12 2 30 0 40 -3 9 -5 -1 -4 -23z"/>
<path d="M2361 6351 c2 -30 3 -32 6 -8 2 15 9 27 14 27 5 0 9 4 9 8 0 5 -7 9
-15 9 -11 0 -15 -10 -14 -36z"/>
<path d="M2404 6376 c-10 -26 1 -51 24 -54 12 -2 22 1 22 7 0 6 -6 8 -14 5 -8
-3 -17 -1 -21 5 -4 7 4 11 20 11 23 0 24 2 15 20 -12 23 -38 26 -46 6z m31 -6
c3 -5 -1 -10 -10 -10 -9 0 -13 5 -10 10 3 6 8 10 10 10 2 0 7 -4 10 -10z"/>
<path d="M2470 6370 c0 -11 7 -20 15 -20 8 0 15 -5 15 -11 0 -6 -7 -9 -15 -5
-8 3 -15 1 -15 -4 0 -6 9 -10 20 -10 13 0 20 7 20 20 0 11 -7 20 -15 20 -8 0
-15 5 -15 11 0 6 7 9 15 5 8 -3 15 -1 15 4 0 6 -9 10 -20 10 -13 0 -20 -7 -20
-20z"/>
<path d="M2531 6371 c-6 -11 -8 -27 -5 -35 7 -18 39 -21 50 -5 4 8 0 9 -15 4
-12 -4 -21 -2 -21 4 0 6 9 11 21 11 14 0 19 5 17 17 -5 25 -35 28 -47 4z m34
-1 c3 -5 -1 -10 -10 -10 -9 0 -13 5 -10 10 3 6 8 10 10 10 2 0 7 -4 10 -10z"/>
<path d="M2600 6380 c0 -5 7 -7 15 -4 8 4 15 2 15 -4 0 -5 -9 -12 -21 -15 -28
-7 -19 -31 12 -35 23 -3 25 0 21 33 -3 26 -9 35 -23 35 -10 0 -19 -4 -19 -10z
m30 -40 c0 -5 -4 -10 -10 -10 -5 0 -10 5 -10 10 0 6 5 10 10 10 6 0 10 -4 10
-10z"/>
<path d="M2663 6360 c2 -28 6 -36 25 -38 20 -3 22 1 21 35 -1 36 -2 37 -8 8
-3 -16 -11 -30 -16 -30 -5 0 -13 14 -17 30 -6 29 -6 29 -5 -5z"/>
<path d="M1250 6350 c0 -16 5 -30 10 -30 6 0 10 14 10 30 0 17 -4 30 -10 30
-5 0 -10 -13 -10 -30z"/>
<path d="M1343 6315 c0 -8 4 -12 9 -9 4 3 8 9 8 15 0 5 -4 9 -8 9 -5 0 -9 -7
-9 -15z"/>
<path d="M1583 6315 c0 -8 4 -12 9 -9 4 3 8 9 8 15 0 5 -4 9 -8 9 -5 0 -9 -7
-9 -15z"/>
<path d="M908 6303 c7 -3 16 -2 19 1 4 3 -2 6 -13 5 -11 0 -14 -3 -6 -6z"/>
<path d="M968 6303 c6 -2 18 -2 25 0 6 3 1 5 -13 5 -14 0 -19 -2 -12 -5z"/>
<path d="M1123 6303 c15 -2 39 -2 55 0 15 2 2 4 -28 4 -30 0 -43 -2 -27 -4z"/>
<path d="M236 5594 c-7 -19 1 -34 19 -34 8 0 17 -5 21 -11 5 -9 -1 -10 -20 -5
-21 5 -27 3 -24 -6 3 -7 18 -13 34 -13 38 0 45 30 10 46 -14 7 -23 16 -20 21
3 5 12 4 20 -3 16 -13 30 -6 19 10 -10 17 -52 13 -59 -5z"/>
<path d="M380 5565 c0 -25 5 -45 10 -45 6 0 10 11 10 25 0 14 5 25 10 25 6 0
10 -11 10 -25 0 -14 5 -25 10 -25 6 0 10 14 10 31 0 22 -5 32 -20 36 -11 3
-20 9 -20 14 0 5 -4 9 -10 9 -5 0 -10 -20 -10 -45z"/>
<path d="M730 5565 c0 -45 0 -45 36 -45 21 0 33 4 29 10 -3 6 -15 10 -26 10
-10 0 -19 5 -19 10 0 6 9 10 20 10 27 0 25 18 -2 23 l-23 4 23 2 c33 2 27 21
-8 21 -29 0 -30 -2 -30 -45z"/>
<path d="M920 5565 c0 -25 5 -45 10 -45 6 0 10 20 10 45 0 25 -4 45 -10 45 -5
0 -10 -20 -10 -45z"/>
<path d="M1067 5578 c-12 -29 -21 -38 -39 -37 l-23 2 23 4 c32 6 25 38 -8 38
-21 0 -25 -5 -25 -30 0 -27 3 -30 33 -31 29 -1 35 4 48 34 8 20 13 40 11 46
-2 6 -11 -6 -20 -26z"/>
<path d="M1111 5588 c-26 -71 -25 -77 9 -55 17 10 22 9 30 -3 16 -26 20 -4 7
35 -16 46 -34 55 -46 23z"/>
<path d="M1460 5565 c0 -25 5 -45 10 -45 6 0 10 19 8 45 -4 58 -18 58 -18 0z"/>
<path d="M1600 5565 c0 -25 5 -45 10 -45 6 0 10 19 8 45 -4 58 -18 58 -18 0z"/>
<path d="M882 5564 c4 -49 23 -55 23 -7 0 21 -6 38 -13 41 -10 3 -12 -6 -10
-34z"/>
<path d="M957 5593 c-7 -11 4 -73 13 -73 8 0 7 66 -2 75 -3 4 -8 3 -11 -2z"/>
<path d="M1557 5593 c-8 -14 5 -73 17 -73 15 0 14 72 -1 77 -6 2 -13 0 -16 -4z"/>
<path d="M321 5576 c-19 -22 -4 -58 22 -54 11 2 22 8 24 15 3 7 -3 9 -16 6
-15 -4 -21 -1 -21 12 0 12 5 15 21 10 15 -5 20 -3 17 6 -7 20 -33 22 -47 5z"/>
<path d="M457 5584 c-4 -4 -7 -18 -7 -31 0 -27 21 -39 48 -28 15 7 14 9 -8 15
-25 8 -25 8 -2 9 17 1 22 6 20 19 -3 17 -38 29 -51 16z"/>
<path d="M520 5555 c0 -19 5 -35 10 -35 6 0 10 11 10 25 0 14 5 25 10 25 6 0
10 -11 10 -25 0 -34 18 -32 23 3 l4 27 2 -27 c0 -16 6 -28 12 -28 6 0 9 14 7
32 -3 31 -6 33 -45 36 l-43 3 0 -36z"/>
<path d="M630 5565 c-13 -33 -6 -45 26 -45 22 0 25 4 22 32 -4 43 -34 50 -48
13z m30 -25 c0 -5 -5 -10 -11 -10 -5 0 -7 5 -4 10 3 6 8 10 11 10 2 0 4 -4 4
-10z"/>
<path d="M810 5556 c0 -20 5 -36 10 -36 6 0 10 11 10 25 0 14 5 25 10 25 6 0
10 -11 10 -25 0 -14 5 -25 11 -25 6 0 9 14 7 33 -2 27 -8 33 -30 35 -26 3 -28
1 -28 -32z"/>
<path d="M1183 5575 c-3 -9 2 -22 13 -31 17 -12 17 -13 2 -8 -10 3 -18 1 -18
-5 0 -6 11 -11 25 -11 30 0 36 36 8 43 -17 4 -17 5 0 6 10 0 15 6 12 11 -9 15
-35 12 -42 -5z"/>
<path d="M1253 5575 c-3 -9 2 -22 13 -31 17 -12 17 -13 2 -8 -10 3 -18 1 -18
-5 0 -6 11 -11 25 -11 30 0 36 36 8 43 -17 4 -17 5 0 6 10 0 15 6 12 11 -9 15
-35 12 -42 -5z"/>
<path d="M1319 5574 c-17 -21 0 -49 32 -49 27 0 37 28 19 50 -16 19 -34 19
-51 -1z m41 -19 c0 -8 -7 -15 -15 -15 -16 0 -20 12 -8 23 11 12 23 8 23 -8z"/>
<path d="M1394 5576 c-10 -26 1 -51 24 -54 15 -2 22 2 22 14 0 13 -3 14 -15 4
-13 -10 -15 -9 -15 10 0 16 4 20 16 16 10 -4 14 -1 12 6 -7 19 -37 22 -44 4z"/>
<path d="M1497 5584 c-4 -4 -7 -20 -7 -36 0 -24 4 -28 29 -28 27 0 28 2 22 32
-6 31 -29 47 -44 32z"/>
<path d="M1634 5576 c-11 -29 0 -51 26 -51 21 0 25 5 25 30 0 24 -5 31 -23 33
-13 2 -24 -3 -28 -12z m36 -21 c0 -8 -4 -15 -10 -15 -5 0 -10 7 -10 15 0 8 5
15 10 15 6 0 10 -7 10 -15z"/>
<path d="M1705 5582 c-9 -10 -5 -62 5 -62 6 0 10 11 10 25 0 14 5 25 10 25 6
0 10 -11 10 -25 0 -14 5 -25 11 -25 6 0 9 14 7 33 -2 25 -8 32 -25 33 -12 1
-25 -1 -28 -4z"/>
<path d="M500 4165 l0 -755 301 0 300 0 -22 -40 -23 -40 22 -39 22 -39 0 -771
0 -772 144 2 c95 0 150 -3 163 -11 16 -10 16 -11 -5 -7 -12 3 -20 1 -16 -4 7
-12 31 -11 39 2 4 6 -1 17 -11 25 -18 13 -18 14 1 8 17 -6 18 -5 7 7 -10 11
-16 11 -32 1 -13 -8 -65 -12 -150 -12 l-130 0 0 766 0 766 22 39 22 39 -23 40
-22 40 600 0 601 0 0 275 c0 151 3 275 6 275 4 0 22 -9 40 -21 l34 -21 34 21
c33 21 44 21 520 21 317 0 486 3 486 10 0 7 -169 10 -486 10 -476 0 -487 0
-520 21 l-34 21 -34 -21 c-18 -12 -36 -21 -40 -21 -3 0 -6 212 -6 470 l0 470
-905 0 -905 0 0 -755z m1800 600 l0 -145 -895 0 -895 0 0 145 0 145 895 0 895
0 0 -145z m-1500 -300 l0 -145 -145 0 -145 0 0 145 0 145 145 0 145 0 0 -145z
m1500 0 l0 -145 -745 0 -745 0 0 145 0 145 745 0 745 0 0 -145z m-1500 -600
l0 -445 -145 0 -145 0 0 445 0 445 145 0 145 0 0 -445z m1500 0 l0 -445 -745
0 -745 0 0 445 0 445 745 0 745 0 0 -445z m125 123 c33 -15 32 -23 -5 -38 -24
-10 -36 -10 -60 0 -36 15 -38 23 -7 38 29 14 41 14 72 0z m-1300 -628 c14 -27
14 -33 0 -60 -9 -16 -18 -30 -20 -30 -2 0 -11 14 -20 30 -14 27 -14 33 0 60 9
17 18 30 20 30 2 0 11 -13 20 -30z"/>
<path d="M1271 4788 c-14 -38 1 -63 43 -66 33 -3 36 -1 36 22 0 20 -5 26 -21
26 -15 0 -19 -5 -15 -15 3 -9 0 -15 -8 -15 -17 0 -27 23 -16 39 5 8 16 11 30
6 16 -5 21 -4 18 6 -3 8 -17 15 -31 17 -21 3 -29 -2 -36 -20z"/>
<path d="M1367 4784 c-4 -4 -7 -20 -7 -36 0 -24 4 -28 29 -28 27 0 28 2 22 32
-6 31 -29 47 -44 32z"/>
<path d="M1430 4753 c0 -18 5 -33 10 -33 6 0 10 11 10 25 0 14 5 25 10 25 6 0
10 4 10 9 0 6 -9 9 -20 8 -16 -1 -20 -8 -20 -34z"/>
<path d="M1481 4776 c-7 -8 -10 -24 -6 -36 7 -22 39 -27 51 -8 5 8 2 9 -9 5
-9 -3 -19 -2 -22 3 -4 6 3 10 15 10 15 0 20 5 18 17 -4 23 -31 28 -47 9z"/>
<path d="M570 4466 c0 -25 5 -46 10 -46 6 0 10 6 10 13 0 7 10 17 23 22 12 6
22 19 22 30 0 15 -8 21 -32 23 -33 3 -33 3 -33 -42z m50 14 c0 -5 -7 -10 -15
-10 -8 0 -15 5 -15 10 0 6 7 10 15 10 8 0 15 -4 15 -10z"/>
<path d="M662 4465 c0 -27 2 -42 5 -32 6 21 17 22 33 2 21 -25 33 -17 15 11
-16 24 -16 27 1 45 15 16 15 19 2 19 -9 0 -22 -7 -29 -16 -12 -14 -14 -14 -20
3 -5 11 -7 -1 -7 -32z"/>
<path d="M890 4465 c0 -25 5 -45 10 -45 6 0 10 19 8 45 -4 58 -18 58 -18 0z"/>
<path d="M960 4501 c0 -5 -9 -11 -21 -14 -16 -4 -20 -12 -17 -34 2 -22 9 -29
31 -31 26 -3 27 -2 27 42 0 25 -4 46 -10 46 -5 0 -10 -4 -10 -9z m0 -46 c0 -8
-4 -15 -10 -15 -5 0 -10 7 -10 15 0 8 5 15 10 15 6 0 10 -7 10 -15z"/>
<path d="M990 4455 c0 -19 5 -35 10 -35 6 0 10 11 10 25 0 14 5 25 10 25 6 0
10 5 10 10 0 6 -9 10 -20 10 -16 0 -20 -7 -20 -35z"/>
<path d="M1044 4476 c-10 -26 1 -51 24 -54 12 -2 22 2 22 8 0 7 -7 10 -15 6
-8 -3 -15 -1 -15 4 0 6 9 10 20 10 23 0 26 10 8 28 -16 16 -37 15 -44 -2z"/>
<path d="M1113 4475 c-3 -9 2 -22 13 -31 17 -12 17 -13 2 -8 -10 3 -18 1 -18
-5 0 -15 37 -14 46 1 4 6 -1 17 -11 25 -17 12 -18 13 -1 13 9 0 14 5 11 10 -9
15 -35 12 -42 -5z"/>
<path d="M1177 4484 c-4 -4 -7 -18 -7 -31 0 -27 21 -39 48 -28 15 7 14 9 -8
15 -25 8 -25 8 -2 9 17 1 22 6 20 19 -3 17 -38 29 -51 16z"/>
<path d="M1247 4484 c-4 -4 -7 -20 -7 -36 0 -24 4 -28 29 -28 27 0 28 2 22 32
-6 31 -29 47 -44 32z"/>
<path d="M1310 4456 c0 -33 2 -36 30 -36 27 0 30 3 30 29 0 17 -4 33 -10 36
-6 4 -10 -5 -10 -19 0 -14 -4 -26 -10 -26 -5 0 -10 9 -10 19 0 11 -4 23 -10
26 -6 4 -10 -8 -10 -29z"/>
<path d="M1003 4403 c71 -2 183 -2 250 0 67 1 10 3 -128 3 -137 0 -192 -2
-122 -3z"/>
<path d="M893 4165 c0 -27 2 -38 4 -22 2 15 2 37 0 50 -2 12 -4 0 -4 -28z"/>
<path d="M940 4167 c0 -44 2 -48 23 -45 29 4 37 55 10 65 -10 4 -21 11 -25 17
-4 6 -8 -11 -8 -37z m37 -21 c-4 -9 -11 -16 -17 -16 -11 0 -14 33 -3 44 11 10
26 -11 20 -28z"/>
<path d="M1070 4165 c0 -25 5 -45 10 -45 6 0 10 20 10 45 0 25 -4 45 -10 45
-5 0 -10 -20 -10 -45z"/>
<path d="M1103 4165 c0 -27 2 -38 4 -22 2 15 2 37 0 50 -2 12 -4 0 -4 -28z"/>
<path d="M1011 4171 c-6 -11 -8 -27 -5 -35 7 -18 39 -21 50 -5 4 8 0 9 -15 4
-12 -4 -21 -2 -21 4 0 6 9 11 21 11 14 0 19 5 17 17 -5 25 -35 28 -47 4z m34
-1 c3 -5 -1 -10 -10 -10 -9 0 -13 5 -10 10 3 6 8 10 10 10 2 0 7 -4 10 -10z"/>
<path d="M1131 4171 c-6 -11 -8 -27 -5 -35 7 -18 39 -21 50 -5 4 8 0 9 -15 4
-12 -4 -21 -2 -21 4 0 6 9 11 21 11 14 0 19 5 17 17 -5 25 -35 28 -47 4z m34
-1 c3 -5 -1 -10 -10 -10 -9 0 -13 5 -10 10 3 6 8 10 10 10 2 0 7 -4 10 -10z"/>
<path d="M910 4150 c0 -16 5 -30 10 -30 6 0 10 14 10 30 0 17 -4 30 -10 30 -5
0 -10 -13 -10 -30z"/>
<path d="M1050 3900 c0 -5 -7 -10 -15 -10 -16 0 -31 -43 -20 -59 3 -6 17 -11
31 -11 22 0 24 4 24 45 0 25 -4 45 -10 45 -5 0 -10 -4 -10 -10z m0 -51 c0 -20
-15 -26 -24 -10 -8 13 4 42 15 35 5 -3 9 -14 9 -25z"/>
<path d="M1210 3865 c0 -25 5 -45 10 -45 6 0 10 20 10 45 0 25 -4 45 -10 45
-5 0 -10 -20 -10 -45z"/>
<path d="M890 3875 c-16 -19 -3 -55 21 -55 10 0 19 4 19 10 0 5 -7 7 -15 4
-11 -5 -15 1 -15 21 0 20 4 26 15 21 8 -3 15 -1 15 4 0 15 -26 12 -40 -5z"/>
<path d="M951 3876 c-19 -23 -4 -58 22 -54 17 2 22 10 22 33 0 34 -24 45 -44
21z m36 -30 c-4 -9 -11 -16 -17 -16 -11 0 -14 33 -3 44 11 10 26 -11 20 -28z"/>
<path d="M1084 3876 c-10 -26 1 -51 24 -54 12 -2 22 1 22 7 0 6 -6 8 -14 5 -8
-3 -17 -1 -21 5 -4 7 4 11 20 11 23 0 24 2 15 20 -12 23 -38 26 -46 6z m31 -6
c3 -5 -1 -10 -10 -10 -9 0 -13 5 -10 10 3 6 8 10 10 10 2 0 7 -4 10 -10z"/>
<path d="M1243 3855 c0 -22 2 -30 4 -17 2 12 2 30 0 40 -3 9 -5 -1 -4 -23z"/>
<path d="M1270 3870 c-13 -25 -2 -50 22 -50 10 0 17 -4 13 -10 -3 -5 -13 -6
-23 -3 -14 5 -15 3 -5 -7 19 -21 43 6 43 49 0 30 -4 37 -20 38 -11 1 -24 -7
-30 -17z m35 -15 c0 -10 -6 -20 -12 -22 -8 -3 -13 5 -13 22 0 17 5 25 13 23 6
-3 12 -13 12 -23z"/>
<path d="M1330 3855 c0 -19 5 -35 10 -35 6 0 10 14 10 30 0 17 5 30 10 30 6 0
10 -13 10 -30 0 -16 5 -30 10 -30 11 0 13 30 4 54 -3 9 -17 16 -30 16 -21 0
-24 -5 -24 -35z"/>
<path d="M1404 3876 c-10 -26 1 -51 24 -54 12 -2 22 1 22 7 0 6 -6 8 -14 5 -8
-3 -17 -1 -21 5 -4 7 4 11 20 11 23 0 24 2 15 20 -12 23 -38 26 -46 6z m31 -6
c3 -5 -1 -10 -10 -10 -9 0 -13 5 -10 10 3 6 8 10 10 10 2 0 7 -4 10 -10z"/>
<path d="M1060 3567 c0 -20 4 -38 8 -41 11 -6 9 60 -1 70 -4 4 -7 -9 -7 -29z"/>
<path d="M891 3551 c1 -28 3 -30 6 -11 3 14 9 30 14 36 5 7 3 11 -6 11 -11 0
-15 -11 -14 -36z"/>
<path d="M924 3566 c-7 -29 1 -46 22 -46 8 0 12 -5 9 -10 -4 -6 -12 -7 -18 -4
-7 4 -7 1 1 -7 11 -12 16 -11 28 6 22 30 14 79 -13 83 -17 3 -24 -3 -29 -22z
m36 -17 c0 -20 -15 -26 -25 -9 -9 15 3 43 15 35 5 -3 10 -15 10 -26z"/>
<path d="M1095 3582 c-9 -10 -5 -62 5 -62 6 0 10 11 10 24 0 35 18 42 22 9 4
-33 41 -45 52 -17 13 34 -3 53 -44 52 -21 0 -41 -3 -45 -6z m78 -15 c3 -8 1
-20 -4 -28 -11 -19 -34 3 -26 25 8 20 23 21 30 3z"/>
<path d="M1201 3551 c1 -36 1 -36 8 -6 3 17 11 30 16 30 5 0 13 -13 17 -30 6
-29 6 -29 5 5 -2 29 -6 35 -24 36 -20 1 -23 -3 -22 -35z"/>
<path d="M1270 3575 c-16 -19 -3 -55 21 -55 10 0 19 4 19 10 0 5 -7 7 -15 4
-11 -5 -15 1 -15 21 0 20 4 26 15 21 8 -3 15 -1 15 4 0 15 -26 12 -40 -5z"/>
<path d="M1331 3576 c-19 -23 -4 -58 22 -54 17 2 22 10 22 33 0 34 -24 45 -44
21z m36 -30 c-4 -9 -11 -16 -17 -16 -11 0 -14 33 -3 44 11 10 26 -11 20 -28z"/>
<path d="M1390 3555 c0 -19 5 -35 10 -35 6 0 10 14 10 30 0 17 5 30 10 30 6 0
10 -13 10 -30 0 -16 5 -30 10 -30 11 0 13 30 4 54 -3 9 -17 16 -30 16 -21 0
-24 -5 -24 -35z"/>
<path d="M4700 4390 c0 -236 -2 -430 -5 -430 -3 0 -33 14 -66 31 -34 17 -63
28 -66 25 -3 -2 17 -16 44 -30 l48 -25 -540 -3 -540 -3 545 -5 545 -5 -52 -28
c-79 -41 -64 -43 17 -2 l70 35 0 -170 0 -170 905 0 905 0 0 605 0 605 -905 0
-905 0 0 -430z m1800 275 l0 -145 -895 0 -895 0 0 145 0 145 895 0 895 0 0
-145z m-1500 -300 l0 -145 -145 0 -145 0 0 145 0 145 145 0 145 0 0 -145z
m1500 0 l0 -145 -745 0 -745 0 0 145 0 145 745 0 745 0 0 -145z m-1500 -450
l0 -295 -145 0 -145 0 0 295 0 295 145 0 145 0 0 -295z m1500 0 l0 -295 -745
0 -745 0 0 295 0 295 745 0 745 0 0 -295z"/>
<path d="M5410 4665 c0 -49 16 -62 22 -17 l4 27 14 -27 c21 -44 40 -35 40 17
0 49 -16 62 -22 18 l-4 -28 -14 28 c-21 43 -40 34 -40 -18z"/>
<path d="M5572 4664 c4 -49 23 -55 23 -7 0 21 -6 38 -13 41 -10 3 -12 -6 -10
-34z"/>
<path d="M5507 4684 c-4 -4 -7 -20 -7 -36 0 -24 4 -28 29 -28 27 0 28 2 22 32
-6 31 -29 47 -44 32z"/>
<path d="M5610 4656 c0 -33 2 -36 30 -36 27 0 30 3 30 29 0 17 -4 33 -10 36
-6 4 -10 -5 -10 -19 0 -14 -4 -26 -10 -26 -5 0 -10 9 -10 19 0 11 -4 23 -10
26 -6 4 -10 -8 -10 -29z"/>
<path d="M5680 4655 c0 -19 5 -35 10 -35 6 0 10 11 10 25 0 14 5 25 10 25 6 0
10 5 10 10 0 6 -9 10 -20 10 -16 0 -20 -7 -20 -35z"/>
<path d="M5731 4676 c-7 -8 -10 -24 -6 -36 7 -22 39 -27 51 -8 5 8 2 9 -9 5
-9 -3 -19 -2 -22 3 -4 6 3 10 15 10 15 0 20 5 18 17 -4 23 -31 28 -47 9z"/>
<path d="M4770 4366 c0 -25 5 -46 10 -46 6 0 10 6 10 13 0 7 10 17 23 22 12 6
22 19 22 30 0 15 -8 21 -32 23 -33 3 -33 3 -33 -42z m50 14 c0 -5 -7 -10 -15
-10 -8 0 -15 5 -15 10 0 6 7 10 15 10 8 0 15 -4 15 -10z"/>
<path d="M4862 4365 c0 -27 2 -42 5 -32 6 21 17 22 33 2 21 -25 33 -17 15 11
-16 24 -16 27 1 45 15 16 15 19 2 19 -9 0 -22 -7 -29 -16 -12 -14 -14 -14 -20
3 -5 11 -7 -1 -7 -32z"/>
<path d="M5270 4400 c0 -5 -7 -10 -15 -10 -7 0 -18 -8 -24 -17 -9 -17 -11 -17
-25 2 -12 16 -18 18 -33 9 -24 -15 -29 -52 -7 -61 9 -3 26 0 37 7 15 9 22 10
25 1 2 -6 17 -11 33 -11 28 0 29 2 29 45 0 25 -4 45 -10 45 -5 0 -10 -4 -10
-10z m-72 -48 c2 -7 -3 -12 -12 -12 -9 0 -16 7 -16 16 0 17 22 14 28 -4z m72
-3 c0 -5 -7 -9 -15 -9 -15 0 -20 12 -9 23 8 8 24 -1 24 -14z"/>
<path d="M5510 4365 c0 -25 5 -45 10 -45 6 0 10 19 8 45 -4 58 -18 58 -18 0z"/>
<path d="M5092 4374 c-15 -26 -3 -56 21 -52 11 2 23 10 25 18 4 12 3 13 -10 3
-16 -14 -28 -8 -28 15 0 10 7 13 21 9 13 -3 19 -1 16 6 -6 19 -35 20 -45 1z"/>
<path d="M5304 4376 c-10 -26 1 -51 24 -54 12 -2 22 2 22 8 0 7 -7 10 -15 6
-8 -3 -15 -1 -15 4 0 6 9 10 20 10 23 0 26 10 8 28 -16 16 -37 15 -44 -2z"/>
<path d="M5430 4371 c0 -35 12 -51 36 -51 21 0 24 5 24 36 0 21 -4 33 -10 29
-5 -3 -10 -15 -10 -26 0 -10 -4 -19 -10 -19 -5 0 -10 11 -10 25 0 14 -4 25
-10 25 -5 0 -10 -9 -10 -19z"/>
<path d="M5544 4376 c-10 -26 1 -51 24 -54 15 -2 22 2 22 14 0 13 -3 14 -15 4
-13 -10 -15 -9 -15 10 0 16 4 20 16 16 10 -4 14 -1 12 6 -7 19 -37 22 -44 4z"/>
<path d="M5208 4303 c72 -2 192 -2 265 0 72 1 13 3 -133 3 -146 0 -205 -2
-132 -3z"/>
<path d="M5088 4098 c-2 -7 -1 -29 3 -48 6 -35 6 -35 8 -5 2 17 4 38 6 48 4
19 -11 24 -17 5z"/>
<path d="M5229 4095 c-7 -6 2 -75 10 -75 3 0 6 16 5 35 -1 35 -6 49 -15 40z"/>
<path d="M5121 4051 c2 -30 3 -32 6 -8 2 15 9 27 14 27 5 0 9 4 9 8 0 5 -7 9
-15 9 -11 0 -15 -10 -14 -36z"/>
<path d="M5161 4071 c-6 -11 -8 -27 -5 -35 7 -18 39 -21 50 -5 4 8 0 9 -15 4
-12 -4 -21 -2 -21 4 0 6 9 11 21 11 14 0 19 5 17 17 -5 25 -35 28 -47 4z m34
-1 c3 -5 -1 -10 -10 -10 -9 0 -13 5 -10 10 3 6 8 10 10 10 2 0 7 -4 10 -10z"/>
<path d="M5080 3787 c0 -13 23 -67 29 -67 9 0 32 62 25 69 -2 3 -7 -5 -11 -17
-6 -25 -23 -30 -23 -8 0 8 -4 18 -10 21 -5 3 -10 4 -10 2z"/>
<path d="M5151 3776 c-19 -23 -4 -58 22 -54 17 2 22 10 22 33 0 34 -24 45 -44
21z m36 -30 c-4 -9 -11 -16 -17 -16 -11 0 -14 33 -3 44 11 10 26 -11 20 -28z"/>
<path d="M5216 3765 c4 -16 7 -38 8 -47 0 -10 3 -18 7 -18 8 0 33 79 27 86 -3
2 -9 -8 -13 -23 l-7 -28 -14 30 -14 30 6 -30z"/>
<path d="M5280 3780 c0 -5 7 -7 15 -4 8 4 15 2 15 -4 0 -5 -9 -12 -21 -15 -28
-7 -19 -31 12 -35 23 -3 25 0 21 33 -3 26 -9 35 -23 35 -10 0 -19 -4 -19 -10z
m30 -40 c0 -5 -4 -10 -10 -10 -5 0 -10 5 -10 10 0 6 5 10 10 10 6 0 10 -4 10
-10z"/>
<path d="M5347 3783 c-15 -15 -7 -55 13 -60 11 -3 17 -9 15 -14 -3 -4 -13 -6
-23 -3 -14 5 -14 4 -3 -4 26 -18 41 -2 41 44 0 36 -3 44 -18 44 -10 0 -22 -3
-25 -7z m29 -39 c-5 -13 -10 -14 -18 -6 -6 6 -8 18 -4 28 5 13 10 14 18 6 6
-6 8 -18 4 -28z"/>
<path d="M5411 3771 c-6 -11 -8 -27 -5 -35 7 -18 39 -21 50 -5 4 8 0 9 -15 4
-12 -4 -21 -2 -21 4 0 6 9 11 21 11 14 0 19 5 17 17 -5 25 -35 28 -47 4z m34
-1 c3 -5 -1 -10 -10 -10 -9 0 -13 5 -10 10 3 6 8 10 10 10 2 0 7 -4 10 -10z"/>
<path d="M5472 3759 c2 -29 7 -35 31 -37 24 -3 27 0 27 27 0 16 -4 33 -10 36
-6 4 -10 -7 -10 -24 0 -17 -4 -31 -10 -31 -5 0 -10 11 -10 24 0 14 -5 28 -11
31 -7 5 -9 -5 -7 -26z"/>
<path d="M5541 3751 c2 -30 3 -32 6 -8 2 15 9 27 14 27 5 0 9 4 9 8 0 5 -7 9
-15 9 -11 0 -15 -10 -14 -36z"/>
<path d="M3558 3985 c-6 -7 3 -65 11 -65 7 0 7 58 -1 65 -2 3 -7 3 -10 0z"/>
<path d="M3442 3963 c-5 -10 -7 -24 -5 -30 5 -15 43 -18 43 -3 0 5 -7 7 -15 4
-10 -4 -15 0 -15 15 0 12 5 21 10 21 6 0 10 -4 10 -10 0 -5 4 -10 10 -10 5 0
7 7 4 15 -8 20 -31 19 -42 -2z"/>
<path d="M3505 3969 c-4 -6 1 -17 11 -25 17 -14 17 -15 2 -10 -10 3 -18 1 -18
-4 0 -6 9 -10 20 -10 25 0 26 18 3 37 -17 14 -17 14 0 9 11 -3 16 -2 12 4 -8
13 -22 13 -30 -1z"/>
<path d="M2340 3865 c-8 -9 -8 -15 -2 -15 6 0 13 -12 15 -27 3 -20 4 -15 6 15
1 46 -1 49 -19 27z"/>
<path d="M2430 3865 c-8 -9 -8 -15 -2 -15 6 0 13 -12 15 -27 3 -20 4 -15 6 15
1 46 -1 49 -19 27z"/>
<path d="M4331 3812 c-14 -26 -2 -62 19 -62 10 0 20 10 23 22 6 23 -8 58 -23
58 -5 0 -14 -8 -19 -18z m31 -9 c6 -22 -1 -43 -13 -43 -5 0 -9 14 -9 30 0 33
15 41 22 13z"/>
<path d="M4421 3778 c2 -31 2 -31 6 -5 2 15 8 27 13 27 5 0 11 -12 13 -27 4
-26 4 -26 6 5 1 26 -3 32 -19 32 -16 0 -20 -6 -19 -32z"/>
<path d="M1240 3315 c-8 -9 -8 -15 -2 -15 6 0 13 -12 15 -27 3 -20 4 -15 6 15
1 46 -1 49 -19 27z"/>
<path d="M1330 3315 c-8 -9 -8 -15 -2 -15 6 0 13 -12 15 -27 3 -20 4 -15 6 15
1 46 -1 49 -19 27z"/>
<path d="M2700 1470 c0 -467 -2 -850 -5 -850 -3 0 -32 13 -65 30 -76 38 -93
38 -20 0 l55 -29 -327 -1 -328 0 0 550 0 550 -95 0 c-57 0 -95 4 -95 10 0 6
-7 10 -15 10 -17 0 -34 -29 -28 -47 5 -15 43 -18 43 -3 0 5 -7 7 -15 4 -10 -4
-15 0 -15 15 0 12 5 21 10 21 6 0 10 -4 10 -10 0 -6 38 -10 95 -10 l95 0 0
-550 0 -550 333 0 332 -1 -55 -29 c-73 -38 -56 -38 20 0 33 17 62 30 65 30 3
0 5 -135 5 -300 l0 -300 905 0 905 0 0 1155 0 1155 -905 0 -905 0 0 -850z
m1800 695 l0 -145 -895 0 -895 0 0 145 0 145 895 0 895 0 0 -145z m-1500 -300
l0 -145 -145 0 -145 0 0 145 0 145 145 0 145 0 0 -145z m1500 0 l0 -145 -745
0 -745 0 0 145 0 145 745 0 745 0 0 -145z m-1500 -1000 l0 -845 -145 0 -145 0
0 845 0 845 145 0 145 0 0 -845z m1500 0 l0 -845 -745 0 -745 0 0 845 0 845
745 0 745 0 0 -845z"/>
<path d="M2960 2165 c0 -25 5 -45 10 -45 6 0 10 7 10 15 0 8 6 15 14 15 7 0
19 7 26 15 17 20 -3 45 -36 45 -22 0 -24 -4 -24 -45z m45 15 c-3 -5 -10 -10
-16 -10 -5 0 -9 5 -9 10 0 6 7 10 16 10 8 0 12 -4 9 -10z"/>
<path d="M3180 2165 c0 -25 5 -45 10 -45 6 0 10 19 8 45 -4 58 -18 58 -18 0z"/>
<path d="M3250 2165 c0 -25 5 -45 10 -45 6 0 10 20 10 45 0 25 -4 45 -10 45
-5 0 -10 -20 -10 -45z"/>
<path d="M3940 2165 c0 -25 5 -45 10 -45 6 0 10 11 10 25 0 14 5 25 10 25 6 0
10 -11 10 -25 0 -14 5 -25 10 -25 11 0 13 30 4 54 -3 9 -12 16 -20 16 -8 0
-14 5 -14 10 0 6 -4 10 -10 10 -5 0 -10 -20 -10 -45z"/>
<path d="M4010 2165 c0 -25 5 -45 10 -45 6 0 10 20 10 45 0 25 -4 45 -10 45
-5 0 -10 -20 -10 -45z"/>
<path d="M3212 2164 c4 -49 23 -55 23 -7 0 21 -6 38 -13 41 -10 3 -12 -6 -10
-34z"/>
<path d="M3039 2174 c-17 -21 0 -49 32 -49 27 0 37 28 19 50 -16 19 -34 19
-51 -1z m41 -19 c0 -8 -7 -15 -15 -15 -16 0 -20 12 -8 23 11 12 23 8 23 -8z"/>
<path d="M3113 2175 c-3 -9 2 -22 13 -31 17 -12 17 -13 2 -8 -10 3 -18 1 -18
-5 0 -6 11 -11 25 -11 30 0 36 36 8 43 -17 4 -17 5 0 6 10 0 15 6 12 11 -9 15
-35 12 -42 -5z"/>
<path d="M3290 2175 c-17 -20 -8 -49 16 -53 30 -4 48 21 34 47 -13 25 -33 27
-50 6z m38 -23 c2 -7 -3 -12 -12 -12 -9 0 -16 7 -16 16 0 17 22 14 28 -4z"/>
<path d="M3360 2155 c0 -19 5 -35 10 -35 6 0 10 11 10 25 0 14 5 25 10 25 6 0
10 -11 10 -25 0 -14 5 -25 10 -25 11 0 13 30 4 54 -3 9 -17 16 -30 16 -21 0
-24 -5 -24 -35z"/>
<path d="M3467 2183 c-16 -15 -6 -54 16 -63 22 -9 22 -9 -3 -10 -22 -1 -23 -2
-7 -11 27 -16 47 6 47 52 0 34 -3 39 -23 39 -13 0 -27 -3 -30 -7z m33 -28 c0
-8 -4 -15 -10 -15 -5 0 -10 7 -10 15 0 8 5 15 10 15 6 0 10 -7 10 -15z"/>
<path d="M3537 2184 c-4 -4 -7 -18 -7 -31 0 -27 21 -39 48 -28 15 7 14 9 -8
15 -25 8 -25 8 -2 9 17 1 22 6 20 19 -3 17 -38 29 -51 16z"/>
<path d="M3610 2175 c-30 -36 14 -72 50 -40 16 14 18 14 23 0 4 -8 14 -15 24
-16 12 -1 9 -3 -7 -8 -21 -6 -22 -8 -8 -14 25 -9 50 20 46 56 -4 35 -35 46
-56 19 -12 -16 -14 -16 -23 1 -12 21 -32 22 -49 2z m38 -23 c2 -7 -3 -12 -12
-12 -9 0 -16 7 -16 16 0 17 22 14 28 -4z m70 0 c2 -7 -3 -12 -12 -12 -9 0 -16
7 -16 16 0 17 22 14 28 -4z"/>
<path d="M3750 2153 c0 -18 5 -33 10 -33 6 0 10 11 10 25 0 14 5 25 10 25 6 0
10 4 10 9 0 6 -9 9 -20 8 -16 -1 -20 -8 -20 -34z"/>
<path d="M3800 2165 c-13 -33 -6 -45 26 -45 22 0 25 4 22 32 -4 43 -34 50 -48
13z m30 -25 c0 -5 -5 -10 -11 -10 -5 0 -7 5 -4 10 3 6 8 10 11 10 2 0 4 -4 4
-10z"/>
<path d="M3860 2144 c0 -23 5 -46 10 -49 6 -3 10 1 10 9 0 9 8 16 19 16 23 0
37 35 22 54 -6 8 -23 14 -36 14 -23 0 -25 -4 -25 -44z m48 8 c2 -7 -3 -12 -12
-12 -9 0 -16 7 -16 16 0 17 22 14 28 -4z"/>
<path d="M4046 2174 c-10 -27 -7 -44 12 -51 9 -4 22 -14 29 -22 10 -13 12 -7
13 37 0 48 -2 52 -24 52 -13 0 -27 -7 -30 -16z m34 -19 c0 -8 -4 -15 -10 -15
-5 0 -10 7 -10 15 0 8 5 15 10 15 6 0 10 -7 10 -15z"/>
<path d="M4110 2171 c0 -35 12 -51 36 -51 21 0 24 5 24 36 0 21 -4 33 -10 29
-5 -3 -10 -15 -10 -26 0 -10 -4 -19 -10 -19 -5 0 -10 11 -10 25 0 14 -4 25
-10 25 -5 0 -10 -9 -10 -19z"/>
<path d="M4191 2176 c-7 -8 -10 -24 -6 -36 7 -22 39 -27 51 -8 5 8 2 9 -9 5
-9 -3 -19 -2 -22 3 -4 6 3 10 15 10 15 0 20 5 18 17 -4 23 -31 28 -47 9z"/>
<path d="M2770 1866 c0 -25 5 -46 10 -46 6 0 10 6 10 13 0 7 10 17 23 22 12 6
22 19 22 30 0 15 -8 21 -32 23 -33 3 -33 3 -33 -42z m50 14 c0 -5 -7 -10 -15
-10 -8 0 -15 5 -15 10 0 6 7 10 15 10 8 0 15 -4 15 -10z"/>
<path d="M2862 1865 c0 -27 2 -42 5 -32 6 21 17 22 33 2 21 -25 33 -17 15 11
-16 24 -16 27 1 45 15 16 15 19 2 19 -9 0 -22 -7 -29 -16 -12 -14 -14 -14 -20
3 -5 11 -7 -1 -7 -32z"/>
<path d="M3092 1874 c-15 -26 -3 -56 21 -52 11 2 23 10 25 18 4 12 3 13 -10 3
-16 -14 -28 -8 -28 15 0 10 7 13 21 9 13 -3 19 -1 16 6 -6 19 -35 20 -45 1z"/>
<path d="M3227 1883 c-16 -15 -6 -54 16 -63 16 -6 -5 -9 -73 -11 l-95 -2 88
-6 c48 -3 126 -3 175 0 l87 6 -72 1 -73 2 0 40 c0 35 -3 40 -23 40 -13 0 -27
-3 -30 -7z m33 -28 c0 -8 -4 -15 -10 -15 -5 0 -10 7 -10 15 0 8 5 15 10 15 6
0 10 -7 10 -15z"/>
<path d="M3297 1884 c-4 -4 -7 -18 -7 -31 0 -27 21 -39 48 -28 15 7 14 9 -8
15 -25 8 -25 8 -2 9 17 1 22 6 20 19 -3 17 -38 29 -51 16z"/>
<path d="M3364 1876 c-11 -29 0 -51 26 -51 21 0 25 5 25 30 0 24 -5 31 -23 33
-13 2 -24 -3 -28 -12z m36 -21 c0 -8 -4 -15 -10 -15 -5 0 -10 7 -10 15 0 8 5
15 10 15 6 0 10 -7 10 -15z"/>
<path d="M3090 1569 c9 -15 8 -24 -1 -35 -8 -10 -8 -14 0 -14 6 0 11 5 11 12
0 9 3 9 12 0 17 -17 33 -15 18 3 -6 8 -9 24 -5 37 5 19 4 20 -5 8 -9 -11 -13
-12 -17 -2 -2 6 -9 12 -14 12 -6 0 -5 -9 1 -21z"/>
<path d="M3086 1269 c4 -13 8 -34 9 -46 0 -13 3 -23 6 -23 10 0 41 81 34 88
-3 4 -8 -4 -12 -16 -6 -25 -23 -30 -23 -8 0 8 -5 18 -11 22 -8 4 -9 -1 -3 -17z"/>
<path d="M3080 875 c-16 -19 -3 -55 21 -55 10 0 19 4 19 10 0 5 -7 7 -15 4
-11 -5 -15 1 -15 21 0 20 4 26 15 21 8 -3 15 -1 15 4 0 15 -26 12 -40 -5z"/>
<path d="M3141 876 c-19 -23 -4 -58 22 -54 17 2 22 10 22 33 0 34 -24 45 -44
21z m36 -30 c-4 -9 -11 -16 -17 -16 -11 0 -14 33 -3 44 11 10 26 -11 20 -28z"/>
<path d="M3200 855 c0 -19 5 -35 10 -35 6 0 10 14 10 30 0 41 20 38 21 -2 l1
-33 7 30 c8 38 24 38 33 -1 6 -28 6 -27 5 6 -2 34 -4 35 -44 38 l-43 3 0 -36z"/>
<path d="M3300 855 c0 -19 5 -35 10 -35 6 0 10 14 10 30 0 41 20 38 21 -2 l1
-33 7 30 c8 38 24 38 33 -1 6 -28 6 -27 5 6 -2 34 -4 35 -44 38 l-43 3 0 -36z"/>
<path d="M3402 859 c2 -29 7 -35 31 -37 24 -3 27 0 27 27 0 16 -4 33 -10 36
-6 4 -10 -7 -10 -24 0 -17 -4 -31 -10 -31 -5 0 -10 11 -10 24 0 14 -5 28 -11
31 -7 5 -9 -5 -7 -26z"/>
<path d="M3471 851 c1 -36 1 -36 8 -6 3 17 11 30 16 30 5 0 13 -13 17 -30 6
-29 6 -29 5 5 -2 29 -6 35 -24 36 -20 1 -23 -3 -22 -35z"/>
<path d="M3541 871 c-6 -11 -8 -27 -5 -35 7 -18 39 -21 50 -5 4 8 0 9 -15 4
-12 -4 -21 -2 -21 4 0 6 9 11 21 11 14 0 19 5 17 17 -5 25 -35 28 -47 4z m34
-1 c3 -5 -1 -10 -10 -10 -9 0 -13 5 -10 10 3 6 8 10 10 10 2 0 7 -4 10 -10z"/>
<path d="M3120 600 c0 -5 -7 -10 -15 -10 -18 0 -37 -34 -29 -54 3 -9 17 -16
30 -16 22 0 24 4 24 45 0 25 -2 45 -5 45 -3 0 -5 -4 -5 -10z m-3 -54 c-4 -9
-11 -16 -17 -16 -11 0 -14 33 -3 44 11 10 26 -11 20 -28z"/>
<path d="M3370 590 c-19 -4 -26 -13 -28 -38 -2 -18 1 -32 7 -32 5 0 11 12 13
28 2 15 8 27 13 27 6 0 11 -12 13 -27 5 -40 17 -34 16 7 -1 42 -2 43 -34 35z"/>
<path d="M3719 595 c-7 -6 2 -75 10 -75 3 0 6 16 5 35 -1 35 -6 49 -15 40z"/>
<path d="M3150 575 c-26 -32 15 -75 44 -45 8 9 6 11 -11 6 -12 -4 -24 -2 -28
4 -4 6 4 10 19 10 28 0 33 9 14 28 -16 16 -23 15 -38 -3z m30 -5 c0 -5 -4 -10
-10 -10 -5 0 -10 5 -10 10 0 6 5 10 10 10 6 0 10 -4 10 -10z"/>
<path d="M3211 535 c1 -27 3 -42 6 -32 2 9 13 17 23 17 10 0 21 7 24 16 9 23
-11 53 -34 51 -17 -1 -20 -8 -19 -52z m39 20 c0 -26 -14 -33 -25 -15 -9 14 1
40 15 40 5 0 10 -11 10 -25z"/>
<path d="M3285 581 c-3 -7 0 -8 9 -5 9 3 16 1 16 -5 0 -6 -7 -11 -15 -11 -8 0
-15 -9 -15 -20 0 -15 7 -20 26 -20 23 0 25 3 22 32 -3 33 -29 50 -43 29z m30
-41 c-3 -5 -10 -10 -16 -10 -5 0 -9 5 -9 10 0 6 7 10 16 10 8 0 12 -4 9 -10z"/>
<path d="M3421 571 c-6 -11 -8 -27 -5 -35 7 -18 39 -21 50 -5 4 8 0 9 -15 4
-12 -4 -21 -2 -21 4 0 6 9 11 21 11 14 0 19 5 17 17 -5 25 -35 28 -47 4z m34
-1 c3 -5 -1 -10 -10 -10 -9 0 -13 5 -10 10 3 6 8 10 10 10 2 0 7 -4 10 -10z"/>
<path d="M3480 555 c0 -19 5 -35 10 -35 6 0 10 14 10 30 0 41 20 38 21 -2 l1
-33 7 30 c8 38 24 38 33 -1 6 -28 6 -27 5 6 -2 34 -4 35 -44 38 l-43 3 0 -36z"/>
<path d="M3590 575 c-26 -32 15 -75 44 -45 8 9 6 11 -11 6 -12 -4 -24 -2 -28
4 -4 6 4 10 19 10 28 0 33 9 14 28 -16 16 -23 15 -38 -3z m30 -5 c0 -5 -4 -10
-10 -10 -5 0 -10 5 -10 10 0 6 5 10 10 10 6 0 10 -4 10 -10z"/>
<path d="M3651 551 c1 -36 1 -36 8 -6 3 17 11 30 16 30 5 0 13 -13 17 -30 6
-29 6 -29 5 5 -2 29 -6 35 -24 36 -20 1 -23 -3 -22 -35z"/>
<path d="M3150 163 c1 -41 2 -46 13 -31 12 15 14 15 23 0 9 -13 10 -9 10 20
-1 28 -4 34 -13 26 -10 -8 -13 -6 -13 5 0 9 -4 19 -10 22 -6 4 -10 -12 -10
-42z"/>
<path d="M3090 143 c0 -26 4 -43 8 -37 4 6 15 13 25 17 27 10 19 61 -10 65
-21 3 -23 -1 -23 -45z m37 3 c-4 -9 -11 -16 -17 -16 -11 0 -14 33 -3 44 11 10
26 -11 20 -28z"/>
<path d="M1530 1722 c0 -17 3 -33 8 -35 9 -6 8 50 -1 60 -4 3 -7 -8 -7 -25z"/>
<path d="M1444 1725 c-13 -32 23 -63 40 -36 4 5 -3 7 -14 4 -15 -4 -20 0 -20
16 0 23 16 29 23 9 2 -7 8 -10 12 -6 10 10 -3 28 -21 28 -8 0 -17 -7 -20 -15z"/>
<path d="M1561 1708 c1 -22 3 -26 6 -13 3 11 10 26 15 33 8 9 6 12 -6 12 -12
0 -16 -9 -15 -32z"/>
<path d="M1607 1733 c-4 -3 -7 -17 -7 -30 0 -16 6 -23 19 -23 25 0 34 14 26
40 -6 20 -25 26 -38 13z m28 -23 c0 -7 -6 -15 -12 -17 -8 -3 -13 4 -13 17 0
13 5 20 13 18 6 -3 12 -11 12 -18z"/>
<path d="M1661 1713 c-1 -29 2 -33 24 -33 22 0 25 4 24 33 l-1 32 -10 -27 c-5
-16 -13 -28 -18 -28 -5 0 -11 12 -13 28 -4 25 -4 25 -6 -5z"/>
<path d="M1724 1720 c3 -14 6 -28 6 -32 0 -20 19 -5 29 22 6 18 6 28 1 25 -6
-4 -10 -14 -10 -23 -1 -13 -5 -11 -16 8 l-15 25 5 -25z"/>
<path d="M2340 915 c-8 -9 -8 -15 -2 -15 6 0 13 -12 15 -27 3 -20 4 -15 6 15
1 46 -1 49 -19 27z"/>
<path d="M2430 915 c-8 -9 -8 -15 -2 -15 6 0 13 -12 15 -27 3 -20 4 -15 6 15
1 46 -1 49 -19 27z"/>
</g>
</svg>
